<svg id="Calque_1" data-name="Calque 1" xmlns="http://www.w3.org/2000/svg" viewBox="0 0 595.28 841.89"><defs><style>.cls-1{font-size:202.36px;}.cls-1,.cls-5{fill:#46a59e;}.cls-1,.cls-6{font-family:Jaapokki-Regular, Jaapokki;}.cls-2{letter-spacing:-0.18em;}.cls-3{letter-spacing:-0.02em;}.cls-4{letter-spacing:-0.01em;}.cls-6{font-size:179.92px;fill:#fff;stroke:#4566a8;stroke-miterlimit:10;}</style></defs><title>Plan de travail 1</title><text class="cls-1" transform="translate(98.04 355.34) scale(0.86 1)">gi<tspan class="cls-2" x="151.16" y="0">f</tspan><tspan class="cls-3" x="216.73" y="0">t</tspan><tspan class="cls-4" x="292.21" y="0">e</tspan><tspan x="397.03" y="0">r</tspan></text><rect class="cls-5" x="291.08" y="480.73" width="206.15" height="190.12"/><text class="cls-6" transform="translate(350.16 584.38) scale(0.86 1)">g</text><path class="cls-5" d="M483.95,452.57v6.54c-.13.54-.29,1.07-.37,1.61-.16,1-.28,2.08-.41,3.13a1.33,1.33,0,0,1-.05.2c-.2.69-.42,1.37-.6,2.07s-.29,1.24-.44,1.87l0,0c-.21.45-.45.88-.63,1.35-.28.75-.52,1.52-.77,2.29,0,0-.06.07-.09.11-.19.34-.41.67-.57,1s-.3.76-.47,1.13a7.27,7.27,0,0,1-.38.72c-.2.35-.43.69-.63,1s-.54,1-.85,1.45-.9,1.15-1.3,1.75a11.21,11.21,0,0,1-1.69,2.07c-.74.69-1.55,1.31-2.35,1.93a8.59,8.59,0,0,1-1.26.85c-1.23.65-2.48,1.28-3.73,1.89a5.3,5.3,0,0,1-1.18.42c-1.08.24-2.16.45-3.25.64a3.29,3.29,0,0,1-1.1,0,23.09,23.09,0,0,0-8.33.09,2.89,2.89,0,0,1-1.2,0,22.71,22.71,0,0,0-9.52-.28,3.2,3.2,0,0,1-1.3,0,22.44,22.44,0,0,0-10.47-.14,2.62,2.62,0,0,1-1.1,0,22.48,22.48,0,0,0-9.83,0,2.76,2.76,0,0,1-1.15,0,22.6,22.6,0,0,0-9.53-.07,2.76,2.76,0,0,1-1.15,0,22.44,22.44,0,0,0-9.12-.28,2.88,2.88,0,0,1-1.2,0,22.72,22.72,0,0,0-9.57-.48,2.66,2.66,0,0,1-1.1-.07,22.42,22.42,0,0,0-11.07-.29,2.48,2.48,0,0,1-1.05,0,22.42,22.42,0,0,0-9.93,0,2.48,2.48,0,0,1-1.05,0,22.43,22.43,0,0,0-11.07.28,2.81,2.81,0,0,1-1.15.06,22.78,22.78,0,0,0-8.63.26,2.27,2.27,0,0,1-1,0,22.75,22.75,0,0,0-9.18-.11,2.76,2.76,0,0,1-1.15,0,22.6,22.6,0,0,0-9.27-.37,2.89,2.89,0,0,1-1-.05q-2.31-.41-4.61-.86a4.51,4.51,0,0,1-1-.3c-1.44-.64-2.88-1.3-4.32-1.95-.17-.08-.39-.11-.5-.23-.42-.48-.81-1-1.21-1.49s-.69-.83-1-1.27-.77-1.14-1.15-1.71l-.52-.79c-.3-.46-.61-.91-.89-1.38s-.41-.75-.61-1.13-.36-.65-.51-1-.29-.75-.46-1.12-.44-.89-.63-1.35-.25-.85-.42-1.25-.48-.87-.62-1.34c-.2-.64-.31-1.31-.46-2,0,0,0-.1,0-.15-.21-.67-.44-1.33-.61-2s-.15-1.13-.29-1.71a16.69,16.69,0,0,1-.43-3.46c-.07-1.75-.07-3.51,0-5.26,0-1.28.25-2.55.39-3.82a1.12,1.12,0,0,1,0-.15c.21-.86.44-1.73.64-2.59.15-.66.27-1.33.43-2,.09-.36.21-.71.33-1.06,0-.08.06-.15.09-.22.2-.5.41-1,.59-1.51s.29-.9.45-1.35a8.27,8.27,0,0,1,.34-.78c.22-.45.43-.9.66-1.34s.55-1.06.85-1.58c.18-.31.39-.61.57-.92s.33-.62.51-.91c.31-.49.64-1,1-1.46s.64-.92,1-1.37.52-.61.78-.92c.56-.67,1.11-1.36,1.69-2,.38-.43.81-.83,1.22-1.23s1.1-1.11,1.68-1.64c.41-.38.86-.72,1.29-1.07s.68-.53,1-.78L318,424a3.84,3.84,0,0,1,.35-.31c.51-.29,1-.55,1.53-.85.35-.2.68-.45,1-.66s.56-.3.83-.45l1.72-1a7,7,0,0,1,.71-.36c.4-.16.8-.29,1.2-.46s1.05-.46,1.59-.66.84-.24,1.25-.39,1-.46,1.49-.61c.94-.28,1.9-.5,2.85-.73a15.44,15.44,0,0,1,1.85-.38,18.41,18.41,0,0,0,3.26-.34,6.85,6.85,0,0,1,1.53-.06,48.16,48.16,0,0,1,7.33.37,3.75,3.75,0,0,1,.51,0l2.63.66,2,.45s.06,0,.09,0l1.67.6,1.43.46a7.11,7.11,0,0,1,.91.36c.35.18.66.42,1,.59s.76.27,1.13.42a5.9,5.9,0,0,1,.8.39c.55.33,1.09.69,1.64,1s1.05.54,1.53.87,1.1.87,1.65,1.3,1,.7,1.42,1.07,1.17,1,1.74,1.46c.28.24.55.49.82.75.58.54,1.15,1.09,1.73,1.63s.95.84,1.41,1.26c.72.65,1.44,1.29,2.14,1.95.43.41.81.88,1.25,1.28.63.57,1.31,1.1,1.94,1.67s1,1.06,1.58,1.57,1.16,1,1.72,1.51c.77.71,1.52,1.45,2.29,2.16s1.39,1.23,2.06,1.86,1.16,1.17,1.76,1.72c.85.77,1.74,1.49,2.58,2.28.56.52,1,1.14,1.57,1.66.92.87,1.87,1.71,2.84,2.53a.7.7,0,0,0,.65,0,5.51,5.51,0,0,0,.79-.73l2.26-2.11,1.72-1.58c.45-.42.87-.86,1.33-1.27s1-.85,1.51-1.3.8-.86,1.22-1.26,1.15-1.06,1.73-1.58l1.94-1.73q.84-.76,1.65-1.54c.57-.54,1.12-1.11,1.7-1.65.36-.33.77-.59,1.13-.93.56-.52,1.07-1.1,1.63-1.62s1.38-1.26,2.08-1.89,1.56-1.42,2.32-2.14c.57-.53,1.11-1.1,1.67-1.64s.88-.82,1.34-1.21c.84-.7,1.7-1.38,2.55-2.07a12.41,12.41,0,0,1,1-.79,11.64,11.64,0,0,0,1.46-.86,11.89,11.89,0,0,1,2.36-1.41c.29-.16.61-.27.9-.43.6-.31,1.18-.67,1.79-1,.37-.18.81-.22,1.17-.42a5.91,5.91,0,0,1,1.91-.7l.19-.06a14,14,0,0,1,1.51-.59c.74-.2,1.49-.31,2.24-.46l.1,0c.78-.21,1.54-.48,2.33-.62s1.79.08,2.63-.33c2.52,0,5-.31,7.55.21,1.13.23,2.33.08,3.48.44a19.22,19.22,0,0,0,2.14.41l.1,0c.63.21,1.26.43,1.9.63s1.08.29,1.61.48,1.11.44,1.66.66l.24.09,1.84.93.76.38c.36.17.73.31,1.09.48s.49.27.73.42.6.38.9.56.62.31.9.51c.59.42,1.17.86,1.75,1.3l.86.67a6.07,6.07,0,0,0,.89.74,11,11,0,0,1,2.38,2.08c.41.4.8.81,1.19,1.22s.89.88,1.3,1.35a11.08,11.08,0,0,0,.87,1.15,8.72,8.72,0,0,1,1.33,1.73c.27.39.53.79.79,1.19s.7,1.07,1,1.62c.16.27.28.56.43.84s.44.75.64,1.14.28.66.44,1c.31.6.66,1.18.94,1.79s.5,1.22.72,1.84.53,1.54.75,2.32c.27.93.53,1.87.71,2.83s.26,2.05.42,3.07C483.67,451.47,483.82,452,483.95,452.57ZM355.77,468.89h16.5c.14,0,.3,0,.4,0s.17-.28.13-.32c-.26-.27-.54-.52-.82-.77l-1.69-1.55c-.73-.68-1.44-1.37-2.18-2-.45-.41-1-.77-1.4-1.2s-1-1.14-1.59-1.66-1.33-1.16-2-1.75-1.16-1.05-1.74-1.58l-1.24-1.17c-.33-.32-.65-.65-1-1s-.74-.57-1.08-.89c-.56-.53-1.06-1.11-1.62-1.64s-1.39-1.25-2.08-1.87-1.6-1.44-2.39-2.18c-.56-.52-1.08-1.08-1.64-1.61s-.91-.83-1.37-1.23a14.42,14.42,0,0,0-1.16-1,11.35,11.35,0,0,0-1.39-.82c-.35-.18-.74-.28-1.1-.43a14.93,14.93,0,0,0-1.49-.61,17.65,17.65,0,0,0-1.92-.38c-1.49-.25-2.91.3-4.38.39l-.1,0-1.71.64a7.25,7.25,0,0,0-1.16.48,16.27,16.27,0,0,0-1.88,1.28,20,20,0,0,0-1.85,1.73A7.93,7.93,0,0,0,330,449c-.34.53-.7,1-1,1.6a11.4,11.4,0,0,0-.42,1.18,9.14,9.14,0,0,0-.6,1.45,15.21,15.21,0,0,0-.33,2.7,12.81,12.81,0,0,0,.27,2.25c.12.71.28,1.42.42,2.13l0,0c.32.61.69,1.21.95,1.85a6.28,6.28,0,0,0,1.1,1.74,11.26,11.26,0,0,0,3.16,2.87c.83.44,1.63,1,2.49,1.34a10.07,10.07,0,0,0,1.87.42l.2,0a11,11,0,0,0,1.78.29C345.22,468.9,350.5,468.89,355.77,468.89Zm73.84,0H445.7a4.86,4.86,0,0,0,1.11-.1c.71-.17,1.42-.39,2.12-.6a8,8,0,0,0,1.32-.45,11.76,11.76,0,0,0,1.66-1,5.48,5.48,0,0,0,1.31-1,13.11,13.11,0,0,1,1.31-1.23,4.73,4.73,0,0,0,.75-.88c.31-.51.5-1.08.83-1.57a3.3,3.3,0,0,0,.7-1.61.53.53,0,0,1,0-.15,5.82,5.82,0,0,0,.59-1.62c.08-1.68,0-3.37,0-5a.92.92,0,0,0-.06-.29l-.62-1.73a7.82,7.82,0,0,0-.42-1.14,18.71,18.71,0,0,0-1-1.63,11.17,11.17,0,0,0-1.22-1.63,17.33,17.33,0,0,0-2.14-1.79,10.66,10.66,0,0,0-1.93-1.07,11,11,0,0,0-2.16-.73,16.43,16.43,0,0,0-3-.38,13.88,13.88,0,0,0-2.49.32c-.6.1-1.19.25-1.78.38l0,0-1.33.66a13.35,13.35,0,0,0-1.56.84,17.54,17.54,0,0,0-1.71,1.4c-.57.51-1.09,1.07-1.65,1.6s-.91.83-1.37,1.25l-1.1,1c-.58.52-1.17,1-1.73,1.56s-.82.87-1.25,1.28-.65.57-1,.85-.75.58-1.09.9c-.55.53-1.05,1.1-1.6,1.63s-1.16,1-1.72,1.52c-.76.7-1.51,1.41-2.26,2.11l-2.07,1.91-1.89,1.76-1.74,1.62-1.67,1.56c-.4.37-.81.73-1.2,1.12,0,0,0,.29.11.33a1.17,1.17,0,0,0,.45,0Z"/></svg>